<svg version="1.1" viewBox="0.0 0.0 960.0 720.0" fill="none" stroke="none" stroke-linecap="square" stroke-miterlimit="10" xmlns:xlink="http://www.w3.org/1999/xlink" xmlns="http://www.w3.org/2000/svg"><clipPath id="p.0"><path d="m0 0l960.0 0l0 720.0l-960.0 0l0 -720.0z" clip-rule="nonzero"/></clipPath><g clip-path="url(#p.0)"><path fill="#ffffff" d="m0 0l960.0 0l0 720.0l-960.0 0z" fill-rule="evenodd"/><path fill="#d9d9d9" d="m457.29135 187.65617l22.677155 0l0 460.34644l-22.677155 0z" fill-rule="evenodd"/><path stroke="#000000" stroke-width="2.0" stroke-linejoin="round" stroke-linecap="butt" d="m457.29135 187.65617l22.677155 0l0 460.34644l-22.677155 0z" fill-rule="evenodd"/><path fill="#000000" fill-opacity="0.0" d="m96.00117 72.00304l0 576.0" fill-rule="evenodd"/><path stroke="#000000" stroke-width="2.0" stroke-linejoin="round" stroke-linecap="butt" d="m96.00117 72.00304l0 576.0" fill-rule="evenodd"/><path fill="#000000" fill-opacity="0.0" d="m864.00116 648.00305l-768.0 0" fill-rule="evenodd"/><path stroke="#000000" stroke-width="2.0" stroke-linejoin="round" stroke-linecap="butt" d="m864.00116 648.00305l-768.0 0" fill-rule="evenodd"/><path fill="#000000" fill-opacity="0.0" d="m172.74957 248.63297l76.7874 0l0 399.3701l-76.7874 0z" fill-rule="evenodd"/><path stroke="#000000" stroke-width="2.0" stroke-linejoin="round" stroke-linecap="butt" d="m172.74957 248.63297l76.7874 0l0 399.3701l-76.7874 0z" fill-rule="evenodd"/><path fill="#000000" d="m205.46944 624.5743q0 -3.046875 0.625 -4.90625q0.625 -1.859375 1.859375 -2.859375q1.234375 -1.015625 3.109375 -1.015625q1.390625 0 2.421875 0.5625q1.046875 0.546875 1.71875 1.59375q0.6875 1.046875 1.078125 2.5625q0.390625 1.5 0.390625 4.0625q0 3.015625 -0.625 4.875q-0.625 1.859375 -1.859375 2.875q-1.234375 1.015625 -3.125 1.015625q-2.484375 0 -3.890625 -1.78125q-1.703125 -2.15625 -1.703125 -6.984375zm2.171875 0q0 4.21875 0.984375 5.625q0.984375 1.40625 2.4375 1.40625q1.453125 0 2.4375 -1.40625q1.0 -1.40625 1.0 -5.625q0 -4.25 -1.0 -5.640625q-0.984375 -1.390625 -2.453125 -1.390625q-1.453125 0 -2.328125 1.21875q-1.078125 1.578125 -1.078125 5.8125z" fill-rule="nonzero"/><path fill="#000000" fill-opacity="0.0" d="m249.5591 348.507l76.7874 0l0 299.49606l-76.7874 0z" fill-rule="evenodd"/><path stroke="#000000" stroke-width="2.0" stroke-linejoin="round" stroke-linecap="butt" d="m249.5591 348.507l76.7874 0l0 299.49606l-76.7874 0z" fill-rule="evenodd"/><path fill="#000000" fill-opacity="0.0" d="m326.36862 448.2865l76.787384 0l0 199.71655l-76.787384 0z" fill-rule="evenodd"/><path stroke="#000000" stroke-width="2.0" stroke-linejoin="round" stroke-linecap="butt" d="m326.36862 448.2865l76.787384 0l0 199.71655l-76.787384 0z" fill-rule="evenodd"/><path fill="#000000" fill-opacity="0.0" d="m403.17847 187.67195l76.787415 0l0 460.3465l-76.787415 0z" fill-rule="evenodd"/><path stroke="#000000" stroke-width="2.0" stroke-linejoin="round" stroke-linecap="butt" d="m403.17847 187.67195l76.787415 0l0 460.3465l-76.787415 0z" fill-rule="evenodd"/><path fill="#000000" d="m440.4999 618.3084l0 -2.4375l2.109375 0l0 2.4375l-2.109375 0zm0 14.75l0 -12.453125l2.109375 0l0 12.453125l-2.109375 0z" fill-rule="nonzero"/><path fill="#d9d9d9" d="m479.98764 548.1605l76.787384 0l0 99.84253l-76.787384 0z" fill-rule="evenodd"/><path stroke="#000000" stroke-width="2.0" stroke-linejoin="round" stroke-linecap="butt" d="m479.98764 548.1605l76.787384 0l0 99.84253l-76.787384 0z" fill-rule="evenodd"/><path fill="#d9d9d9" d="m556.7972 448.2865l76.787415 0l0 199.71655l-76.787415 0z" fill-rule="evenodd"/><path stroke="#000000" stroke-width="2.0" stroke-linejoin="round" stroke-linecap="butt" d="m556.7972 448.2865l76.787415 0l0 199.71655l-76.787415 0z" fill-rule="evenodd"/><path fill="#d9d9d9" d="m633.6067 248.63297l76.787415 0l0 399.3701l-76.787415 0z" fill-rule="evenodd"/><path stroke="#000000" stroke-width="2.0" stroke-linejoin="round" stroke-linecap="butt" d="m633.6067 248.63297l76.787415 0l0 399.3701l-76.787415 0z" fill-rule="evenodd"/><path fill="#d9d9d9" d="m710.4162 148.82193l76.787415 0l0 499.18112l-76.787415 0z" fill-rule="evenodd"/><path stroke="#000000" stroke-width="2.0" stroke-linejoin="round" stroke-linecap="butt" d="m710.4162 148.82193l76.787415 0l0 499.18112l-76.787415 0z" fill-rule="evenodd"/><path fill="#000000" d="m745.6673 633.043l-1.953125 0l0 -17.1875l2.109375 0l0 6.140625q1.328125 -1.6875 3.40625 -1.6875q1.140625 0 2.171875 0.46875q1.03125 0.46875 1.6875 1.3125q0.65625 0.828125 1.03125 2.015625q0.375 1.171875 0.375 2.53125q0 3.1875 -1.578125 4.9375q-1.578125 1.75 -3.796875 1.75q-2.203125 0 -3.453125 -1.84375l0 1.5625zm-0.03125 -6.3125q0 2.234375 0.609375 3.234375q1.0 1.625 2.703125 1.625q1.375 0 2.375 -1.203125q1.015625 -1.203125 1.015625 -3.578125q0 -2.4375 -0.96875 -3.59375q-0.953125 -1.171875 -2.328125 -1.171875q-1.390625 0 -2.40625 1.203125q-1.0 1.203125 -1.0 3.484375z" fill-rule="nonzero"/><path fill="#000000" fill-opacity="0.0" d="m433.54593 671.07874l48.314972 0l0 48.0l-48.314972 0z" fill-rule="evenodd"/><path fill="#000000" d="m461.40652 698.5562l2.078125 0.265625q-0.34375 2.15625 -1.75 3.375q-1.390625 1.203125 -3.4375 1.203125q-2.546875 0 -4.109375 -1.671875q-1.546875 -1.671875 -1.546875 -4.78125q0 -2.015625 0.671875 -3.53125q0.671875 -1.515625 2.03125 -2.265625q1.359375 -0.765625 2.96875 -0.765625q2.03125 0 3.3125 1.03125q1.296875 1.03125 1.65625 2.90625l-2.046875 0.328125q-0.296875 -1.265625 -1.046875 -1.890625q-0.734375 -0.640625 -1.796875 -0.640625q-1.59375 0 -2.59375 1.15625q-0.984375 1.140625 -0.984375 3.609375q0 2.5 0.953125 3.640625q0.96875 1.140625 2.515625 1.140625q1.234375 0 2.0625 -0.765625q0.84375 -0.765625 1.0625 -2.34375z" fill-rule="nonzero"/><path fill="#000000" fill-opacity="0.0" d="m457.7034 671.07874l0 -23.086609" fill-rule="evenodd"/><path stroke="#000000" stroke-width="2.0" stroke-linejoin="round" stroke-linecap="butt" d="m457.7034 671.07874l0 -11.086609" fill-rule="evenodd"/><path fill="#000000" stroke="#000000" stroke-width="2.0" stroke-linecap="butt" d="m461.00687 659.9921l-3.3034668 -9.076172l-3.3034668 9.076172z" fill-rule="evenodd"/><path fill="#000000" fill-opacity="0.0" d="m556.7769 648.2021l0 0c0 3.0072021 -1.1946411 5.8911743 -3.320984 8.017578c-2.1264038 2.1264038 -5.010437 3.321045 -8.017639 3.321045l-15.716492 0c-6.262146 0 -11.338623 5.076416 -11.338623 11.338562l0 0c0 -6.262146 -5.076416 -11.338562 -11.338562 -11.338562l-15.716522 0c-6.262146 0 -11.338593 -5.076477 -11.338593 -11.338623z" fill-rule="evenodd"/><path fill="#000000" fill-opacity="0.0" d="m556.7769 648.2021l0 0c0 3.0072021 -1.1946411 5.8911743 -3.320984 8.017578c-2.1264038 2.1264038 -5.010437 3.321045 -8.017639 3.321045l-15.716492 0c-6.262146 0 -11.338623 5.076416 -11.338623 11.338562l0 0c0 -6.262146 -5.076416 -11.338562 -11.338562 -11.338562l-15.716522 0c-6.262146 0 -11.338593 -5.076477 -11.338593 -11.338623" fill-rule="evenodd"/><path stroke="#000000" stroke-width="2.0" stroke-linejoin="round" stroke-linecap="butt" d="m556.7769 648.2021l0 0c0 3.0072021 -1.1946411 5.8911743 -3.320984 8.017578c-2.1264038 2.1264038 -5.010437 3.321045 -8.017639 3.321045l-15.716492 0c-6.262146 0 -11.338623 5.076416 -11.338623 11.338562l0 0c0 -6.262146 -5.076416 -11.338562 -11.338562 -11.338562l-15.716522 0c-6.262146 0 -11.338593 -5.076477 -11.338593 -11.338623" fill-rule="evenodd"/><path fill="#000000" fill-opacity="0.0" d="m494.2257 671.07874l48.315002 0l0 48.0l-48.315002 0z" fill-rule="evenodd"/><path fill="#000000" d="m513.59216 703.1187l-3.7968445 -12.453125l2.171875 0l1.9843445 7.1875l0.734375 2.671875q0.046875 -0.203125 0.640625 -2.5625l1.984375 -7.296875l2.171875 0l1.859375 7.21875l0.625 2.390625l0.71875 -2.40625l2.125 -7.203125l2.046875 0l-3.890625 12.453125l-2.1875 0l-1.984375 -7.453125l-0.46875 -2.125l-2.53125 9.578125l-2.203125 0z" fill-rule="nonzero"/><path fill="#000000" fill-opacity="0.0" d="m441.57217 187.67195l-344.28345 0" fill-rule="evenodd"/><path stroke="#000000" stroke-width="2.0" stroke-linejoin="round" stroke-linecap="butt" stroke-dasharray="8.0,6.0" d="m441.57217 187.67195l-344.28345 0" fill-rule="evenodd"/><path fill="#000000" fill-opacity="0.0" d="m24.690762 164.14673l47.999996 0l0 48.0l-47.999996 0z" fill-rule="evenodd"/><path fill="#000000" d="m48.366543 196.78673l0 -17.1875l2.109375 0l0 6.171875q1.484375 -1.71875 3.734375 -1.71875q1.375 0 2.390625 0.546875q1.03125 0.546875 1.46875 1.515625q0.4375 0.953125 0.4375 2.78125l0 7.890625l-2.109375 0l0 -7.890625q0 -1.578125 -0.6875 -2.296875q-0.6875 -0.71875 -1.9375 -0.71875q-0.9375 0 -1.765625 0.484375q-0.828125 0.484375 -1.1875 1.3125q-0.34375 0.828125 -0.34375 2.296875l0 6.8125l-2.109375 0z" fill-rule="nonzero"/><path fill="#000000" d="m61.198574 195.94298l0 -1.609375l1.40625 0l0 1.609375l-1.40625 0zm0 9.84375l0 -8.296875l1.40625 0l0 8.296875l-1.40625 0z" fill-rule="nonzero"/><path fill="#000000" fill-opacity="0.0" d="m72.69076 188.14673l23.055122 -0.22047424" fill-rule="evenodd"/><path stroke="#000000" stroke-width="2.0" stroke-linejoin="round" stroke-linecap="butt" d="m72.69076 188.14671l11.055672 -0.10572815" fill-rule="evenodd"/><path fill="#000000" stroke="#000000" stroke-width="2.0" stroke-linecap="butt" d="m83.778015 191.3443l9.044189 -3.390091l-9.107368 -3.2165375z" fill-rule="evenodd"/></g></svg>